<svg width="191" height="40" viewBox="0 0 191 40" fill="none" xmlns="http://www.w3.org/2000/svg">
<path d="M47.94 12.48C47.94 13.2933 47.7533 14.04 47.38 14.72C47.0067 15.3867 46.4333 15.9267 45.66 16.34C44.8867 16.7533 43.9267 16.96 42.78 16.96H40.66V22H37.24V7.96H42.78C43.9 7.96 44.8467 8.15333 45.62 8.54C46.3933 8.92667 46.9733 9.46 47.36 10.14C47.7467 10.82 47.94 11.6 47.94 12.48ZM42.52 14.24C43.1733 14.24 43.66 14.0867 43.98 13.78C44.3 13.4733 44.46 13.04 44.46 12.48C44.46 11.92 44.3 11.4867 43.98 11.18C43.66 10.8733 43.1733 10.72 42.52 10.72H40.66V14.24H42.52ZM57.4605 19.52H52.2205L51.3805 22H47.8005L52.8805 7.96H56.8405L61.9205 22H58.3005L57.4605 19.52ZM56.5805 16.88L54.8405 11.74L53.1205 16.88H56.5805ZM61.8866 14.96C61.8866 13.5733 62.1866 12.34 62.7866 11.26C63.3866 10.1667 64.2199 9.32 65.2866 8.72C66.3666 8.10667 67.5866 7.8 68.9466 7.8C70.6132 7.8 72.0399 8.24 73.2266 9.12C74.4132 10 75.2066 11.2 75.6066 12.72H71.8466C71.5666 12.1333 71.1666 11.6867 70.6466 11.38C70.1399 11.0733 69.5599 10.92 68.9066 10.92C67.8532 10.92 66.9999 11.2867 66.3466 12.02C65.6932 12.7533 65.3666 13.7333 65.3666 14.96C65.3666 16.1867 65.6932 17.1667 66.3466 17.9C66.9999 18.6333 67.8532 19 68.9066 19C69.5599 19 70.1399 18.8467 70.6466 18.54C71.1666 18.2333 71.5666 17.7867 71.8466 17.2H75.6066C75.2066 18.72 74.4132 19.92 73.2266 20.8C72.0399 21.6667 70.6132 22.1 68.9466 22.1C67.5866 22.1 66.3666 21.8 65.2866 21.2C64.2199 20.5867 63.3866 19.74 62.7866 18.66C62.1866 17.58 61.8866 16.3467 61.8866 14.96ZM80.1209 10.7V13.54H84.7009V16.18H80.1209V19.26H85.3009V22H76.7009V7.96H85.3009V10.7H80.1209ZM91.6013 22.14C90.5746 22.14 89.6546 21.9733 88.8413 21.64C88.0279 21.3067 87.3746 20.8133 86.8813 20.16C86.4013 19.5067 86.1479 18.72 86.1213 17.8H89.7613C89.8146 18.32 89.9946 18.72 90.3013 19C90.6079 19.2667 91.0079 19.4 91.5013 19.4C92.0079 19.4 92.4079 19.2867 92.7013 19.06C92.9946 18.82 93.1413 18.4933 93.1413 18.08C93.1413 17.7333 93.0213 17.4467 92.7813 17.22C92.5546 16.9933 92.2679 16.8067 91.9213 16.66C91.5879 16.5133 91.1079 16.3467 90.4813 16.16C89.5746 15.88 88.8346 15.6 88.2613 15.32C87.6879 15.04 87.1946 14.6267 86.7813 14.08C86.3679 13.5333 86.1613 12.82 86.1613 11.94C86.1613 10.6333 86.6346 9.61333 87.5813 8.88C88.5279 8.13333 89.7613 7.76 91.2813 7.76C92.8279 7.76 94.0746 8.13333 95.0213 8.88C95.9679 9.61333 96.4746 10.64 96.5413 11.96H92.8413C92.8146 11.5067 92.6479 11.1533 92.3413 10.9C92.0346 10.6333 91.6413 10.5 91.1612 10.5C90.7479 10.5 90.4146 10.6133 90.1613 10.84C89.9079 11.0533 89.7813 11.3667 89.7813 11.78C89.7813 12.2333 89.9946 12.5867 90.4212 12.84C90.8479 13.0933 91.5146 13.3667 92.4213 13.66C93.3279 13.9667 94.0613 14.26 94.6213 14.54C95.1946 14.82 95.6879 15.2267 96.1013 15.76C96.5146 16.2933 96.7213 16.98 96.7213 17.82C96.7213 18.62 96.5146 19.3467 96.1013 20C95.7013 20.6533 95.1146 21.1733 94.3413 21.56C93.5679 21.9467 92.6546 22.14 91.6013 22.14ZM101.246 10.7V13.54H105.826V16.18H101.246V19.26H106.426V22H97.8259V7.96H106.426V10.7H101.246ZM117.746 7.96V10.7H114.026V22H110.606V10.7H106.886V7.96H117.746ZM128.563 7.96V10.7H124.843V22H121.423V10.7H117.703V7.96H128.563ZM132.699 10.7V13.54H137.279V16.18H132.699V19.26H137.879V22H129.279V7.96H137.879V10.7H132.699ZM146.259 22L143.339 16.7H142.519V22H139.099V7.96H144.839C145.946 7.96 146.886 8.15333 147.659 8.54C148.446 8.92667 149.033 9.46 149.419 10.14C149.806 10.8067 149.999 11.5533 149.999 12.38C149.999 13.3133 149.733 14.1467 149.199 14.88C148.679 15.6133 147.906 16.1333 146.879 16.44L150.119 22H146.259ZM142.519 14.28H144.639C145.266 14.28 145.733 14.1267 146.039 13.82C146.359 13.5133 146.519 13.08 146.519 12.52C146.519 11.9867 146.359 11.5667 146.039 11.26C145.733 10.9533 145.266 10.8 144.639 10.8H142.519V14.28ZM156.226 22.14C155.2 22.14 154.28 21.9733 153.466 21.64C152.653 21.3067 152 20.8133 151.506 20.16C151.026 19.5067 150.773 18.72 150.746 17.8H154.386C154.44 18.32 154.62 18.72 154.926 19C155.233 19.2667 155.633 19.4 156.126 19.4C156.633 19.4 157.033 19.2867 157.326 19.06C157.62 18.82 157.766 18.4933 157.766 18.08C157.766 17.7333 157.646 17.4467 157.406 17.22C157.18 16.9933 156.893 16.8067 156.546 16.66C156.213 16.5133 155.733 16.3467 155.106 16.16C154.2 15.88 153.46 15.6 152.886 15.32C152.313 15.04 151.82 14.6267 151.406 14.08C150.993 13.5333 150.786 12.82 150.786 11.94C150.786 10.6333 151.26 9.61333 152.206 8.88C153.153 8.13333 154.386 7.76 155.906 7.76C157.453 7.76 158.7 8.13333 159.646 8.88C160.593 9.61333 161.1 10.64 161.166 11.96H157.466C157.44 11.5067 157.273 11.1533 156.966 10.9C156.66 10.6333 156.266 10.5 155.786 10.5C155.373 10.5 155.04 10.6133 154.786 10.84C154.533 11.0533 154.406 11.3667 154.406 11.78C154.406 12.2333 154.62 12.5867 155.046 12.84C155.473 13.0933 156.14 13.3667 157.046 13.66C157.953 13.9667 158.686 14.26 159.246 14.54C159.82 14.82 160.313 15.2267 160.726 15.76C161.14 16.2933 161.346 16.98 161.346 17.82C161.346 18.62 161.14 19.3467 160.726 20C160.326 20.6533 159.74 21.1733 158.966 21.56C158.193 21.9467 157.28 22.14 156.226 22.14Z" fill="#023047"/>
<path d="M36.7585 37V28.2727H40.2017C40.8636 28.2727 41.4276 28.3991 41.8935 28.652C42.3594 28.902 42.7145 29.25 42.9588 29.696C43.206 30.1392 43.3295 30.6506 43.3295 31.2301C43.3295 31.8097 43.2045 32.321 42.9545 32.7642C42.7045 33.2074 42.3423 33.5526 41.8679 33.7997C41.3963 34.0469 40.8253 34.1705 40.1548 34.1705H37.9602V32.6918H39.8565C40.2116 32.6918 40.5043 32.6307 40.7344 32.5085C40.9673 32.3835 41.1406 32.2116 41.2543 31.9929C41.3707 31.7713 41.429 31.517 41.429 31.2301C41.429 30.9403 41.3707 30.6875 41.2543 30.4716C41.1406 30.2528 40.9673 30.0838 40.7344 29.9645C40.5014 29.8423 40.206 29.7812 39.848 29.7812H38.6037V37H36.7585ZM43.9281 37V28.2727H47.3712C48.0303 28.2727 48.5928 28.3906 49.0587 28.6264C49.5275 28.8594 49.884 29.1903 50.1283 29.6193C50.3755 30.0455 50.4991 30.5469 50.4991 31.1236C50.4991 31.7031 50.3741 32.2017 50.1241 32.6193C49.8741 33.0341 49.5119 33.3523 49.0374 33.5739C48.5658 33.7955 47.9948 33.9062 47.3244 33.9062H45.019V32.4233H47.0261C47.3783 32.4233 47.671 32.375 47.9039 32.2784C48.1369 32.1818 48.3102 32.0369 48.4238 31.8438C48.5403 31.6506 48.5985 31.4105 48.5985 31.1236C48.5985 30.8338 48.5403 30.5895 48.4238 30.3906C48.3102 30.1918 48.1354 30.0412 47.8996 29.9389C47.6667 29.8338 47.3727 29.7812 47.0175 29.7812H45.7732V37H43.9281ZM48.6411 33.0284L50.8102 37H48.7732L46.6511 33.0284H48.6411ZM59.2229 32.6364C59.2229 33.5881 59.0425 34.3977 58.6817 35.0653C58.3238 35.733 57.8352 36.2429 57.2158 36.5952C56.5994 36.9446 55.9062 37.1193 55.1363 37.1193C54.3607 37.1193 53.6647 36.9432 53.0482 36.5909C52.4317 36.2386 51.9445 35.7287 51.5866 35.0611C51.2286 34.3935 51.0496 33.5852 51.0496 32.6364C51.0496 31.6847 51.2286 30.875 51.5866 30.2074C51.9445 29.5398 52.4317 29.0312 53.0482 28.6818C53.6647 28.3295 54.3607 28.1534 55.1363 28.1534C55.9062 28.1534 56.5994 28.3295 57.2158 28.6818C57.8352 29.0312 58.3238 29.5398 58.6817 30.2074C59.0425 30.875 59.2229 31.6847 59.2229 32.6364ZM57.3522 32.6364C57.3522 32.0199 57.2599 31.5 57.0752 31.0767C56.8934 30.6534 56.6363 30.3324 56.3039 30.1136C55.9715 29.8949 55.5823 29.7855 55.1363 29.7855C54.6903 29.7855 54.3011 29.8949 53.9687 30.1136C53.6363 30.3324 53.3778 30.6534 53.1931 31.0767C53.0113 31.5 52.9204 32.0199 52.9204 32.6364C52.9204 33.2528 53.0113 33.7727 53.1931 34.196C53.3778 34.6193 53.6363 34.9403 53.9687 35.1591C54.3011 35.3778 54.6903 35.4872 55.1363 35.4872C55.5823 35.4872 55.9715 35.3778 56.3039 35.1591C56.6363 34.9403 56.8934 34.6193 57.0752 34.196C57.2599 33.7727 57.3522 33.2528 57.3522 32.6364ZM59.9898 37V28.2727H63.433C64.0949 28.2727 64.6588 28.3991 65.1247 28.652C65.5906 28.902 65.9457 29.25 66.1901 29.696C66.4372 30.1392 66.5608 30.6506 66.5608 31.2301C66.5608 31.8097 66.4358 32.321 66.1858 32.7642C65.9358 33.2074 65.5736 33.5526 65.0991 33.7997C64.6276 34.0469 64.0565 34.1705 63.3861 34.1705H61.1915V32.6918H63.0878C63.4429 32.6918 63.7355 32.6307 63.9656 32.5085C64.1986 32.3835 64.3719 32.2116 64.4855 31.9929C64.602 31.7713 64.6602 31.517 64.6602 31.2301C64.6602 30.9403 64.602 30.6875 64.4855 30.4716C64.3719 30.2528 64.1986 30.0838 63.9656 29.9645C63.7327 29.8423 63.4372 29.7812 63.0793 29.7812H61.8349V37H59.9898ZM67.1593 37V28.2727H73.04V29.794H69.0045V31.8736H72.7374V33.3949H69.0045V35.4787H73.057V37H67.1593ZM73.907 37V28.2727H77.3501C78.0092 28.2727 78.5717 28.3906 79.0376 28.6264C79.5064 28.8594 79.8629 29.1903 80.1072 29.6193C80.3544 30.0455 80.478 30.5469 80.478 31.1236C80.478 31.7031 80.353 32.2017 80.103 32.6193C79.853 33.0341 79.4908 33.3523 79.0163 33.5739C78.5447 33.7955 77.9737 33.9062 77.3033 33.9062H74.9979V32.4233H77.005C77.3572 32.4233 77.6499 32.375 77.8828 32.2784C78.1158 32.1818 78.2891 32.0369 78.4027 31.8438C78.5192 31.6506 78.5774 31.4105 78.5774 31.1236C78.5774 30.8338 78.5192 30.5895 78.4027 30.3906C78.2891 30.1918 78.1143 30.0412 77.8786 29.9389C77.6456 29.8338 77.3516 29.7812 76.9964 29.7812H75.7521V37H73.907ZM78.62 33.0284L80.7891 37H78.7521L76.63 33.0284H78.62ZM80.8496 29.794V28.2727H88.0172V29.794H85.3453V37H83.5215V29.794H80.8496ZM90.4428 28.2727V37H88.5976V28.2727H90.4428ZM91.3609 37V28.2727H97.2415V29.794H93.206V31.8736H96.939V33.3949H93.206V35.4787H97.2586V37H91.3609ZM102.843 30.7827C102.809 30.4389 102.662 30.1719 102.404 29.9815C102.145 29.7912 101.795 29.696 101.351 29.696C101.05 29.696 100.796 29.7386 100.589 29.8239C100.381 29.9062 100.222 30.0213 100.111 30.169C100.003 30.3168 99.9494 30.4844 99.9494 30.6719C99.9437 30.8281 99.9764 30.9645 100.047 31.081C100.121 31.1974 100.222 31.2983 100.35 31.3835C100.478 31.4659 100.626 31.5384 100.793 31.6009C100.961 31.6605 101.14 31.7116 101.33 31.7543L102.114 31.9418C102.495 32.027 102.844 32.1406 103.162 32.2827C103.481 32.4247 103.756 32.5994 103.989 32.8068C104.222 33.0142 104.403 33.2585 104.53 33.5398C104.661 33.821 104.728 34.1435 104.731 34.5071C104.728 35.0412 104.591 35.5043 104.322 35.8963C104.055 36.2855 103.668 36.5881 103.162 36.804C102.66 37.017 102.053 37.1236 101.343 37.1236C100.638 37.1236 100.025 37.0156 99.502 36.7997C98.9821 36.5838 98.5759 36.2642 98.2832 35.8409C97.9935 35.4148 97.8415 34.8878 97.8273 34.2599H99.6128C99.6327 34.5526 99.7165 34.7969 99.8642 34.9929C100.015 35.1861 100.215 35.3324 100.465 35.4318C100.718 35.5284 101.003 35.5767 101.322 35.5767C101.634 35.5767 101.905 35.5312 102.136 35.4403C102.368 35.3494 102.549 35.223 102.677 35.0611C102.805 34.8991 102.868 34.7131 102.868 34.5028C102.868 34.3068 102.81 34.142 102.694 34.0085C102.58 33.875 102.412 33.7614 102.191 33.6676C101.972 33.5739 101.704 33.4886 101.386 33.4119L100.435 33.1733C99.6994 32.9943 99.1185 32.7145 98.6923 32.3338C98.2662 31.9531 98.0545 31.4403 98.0574 30.7955C98.0545 30.267 98.1952 29.8054 98.4793 29.4105C98.7662 29.0156 99.1597 28.7074 99.6597 28.4858C100.16 28.2642 100.728 28.1534 101.364 28.1534C102.012 28.1534 102.577 28.2642 103.06 28.4858C103.546 28.7074 103.924 29.0156 104.194 29.4105C104.464 29.8054 104.603 30.2628 104.611 30.7827H102.843ZM107.549 28.2727H109.825L112.228 34.1364H112.33L114.734 28.2727H117.009V37H115.22V31.3196H115.147L112.889 36.9574H111.67L109.411 31.2983H109.339V37H107.549V28.2727ZM119.434 37H117.457L120.469 28.2727H122.847L125.856 37H123.878L121.692 30.267H121.624L119.434 37ZM119.31 33.5696H123.981V35.0099H119.31V33.5696ZM133.606 28.2727V37H132.012L128.215 31.5071H128.151V37H126.306V28.2727H127.925L131.693 33.7614H131.769V28.2727H133.606ZM136.035 37H134.057L137.07 28.2727H139.448L142.457 37H140.479L138.293 30.267H138.225L136.035 37ZM135.911 33.5696H140.582V35.0099H135.911V33.5696ZM148.284 31.0938C148.224 30.8864 148.14 30.7031 148.032 30.544C147.924 30.3821 147.792 30.2457 147.636 30.1349C147.483 30.0213 147.306 29.9347 147.108 29.875C146.912 29.8153 146.694 29.7855 146.456 29.7855C146.01 29.7855 145.618 29.8963 145.279 30.1179C144.944 30.3395 144.683 30.6619 144.495 31.0852C144.308 31.5057 144.214 32.0199 144.214 32.6278C144.214 33.2358 144.306 33.7528 144.491 34.179C144.676 34.6051 144.937 34.9304 145.275 35.1548C145.613 35.3764 146.012 35.4872 146.473 35.4872C146.89 35.4872 147.247 35.4134 147.542 35.2656C147.841 35.1151 148.068 34.9034 148.224 34.6307C148.383 34.358 148.463 34.0355 148.463 33.6634L148.838 33.7188H146.588V32.3295H150.24V33.429C150.24 34.196 150.078 34.8551 149.754 35.4062C149.43 35.9545 148.984 36.3778 148.416 36.6761C147.848 36.9716 147.197 37.1193 146.464 37.1193C145.646 37.1193 144.927 36.9389 144.308 36.5781C143.689 36.2145 143.206 35.6989 142.859 35.0312C142.515 34.3608 142.343 33.5653 142.343 32.6449C142.343 31.9375 142.446 31.3068 142.65 30.7528C142.858 30.196 143.147 29.7244 143.52 29.3381C143.892 28.9517 144.325 28.6577 144.819 28.456C145.314 28.2543 145.849 28.1534 146.426 28.1534C146.92 28.1534 147.38 28.2259 147.806 28.3707C148.233 28.5128 148.61 28.7145 148.94 28.9759C149.272 29.2372 149.544 29.5483 149.754 29.9091C149.964 30.267 150.099 30.6619 150.159 31.0938H148.284ZM151.026 37V28.2727H156.906V29.794H152.871V31.8736H156.604V33.3949H152.871V35.4787H156.923V37H151.026ZM157.773 28.2727H160.049L162.452 34.1364H162.555L164.958 28.2727H167.234V37H165.444V31.3196H165.371L163.113 36.9574H161.894L159.636 31.2983H159.563V37H157.773V28.2727ZM168.154 37V28.2727H174.035V29.794H169.999V31.8736H173.732V33.3949H169.999V35.4787H174.052V37H168.154ZM182.201 28.2727V37H180.607L176.811 31.5071H176.747V37H174.901V28.2727H176.521L180.288 33.7614H180.365V28.2727H182.201ZM182.793 29.794V28.2727H189.961V29.794H187.289V37H185.465V29.794H182.793Z" fill="#84BC33"/>
<path d="M3.20001 4.80001C3.20001 4.37567 3.36858 3.9687 3.66864 3.66864C3.9687 3.36858 4.37567 3.20001 4.80001 3.20001C5.22436 3.20001 5.63132 3.36858 5.93138 3.66864C6.23144 3.9687 6.40001 4.37567 6.40001 4.80001H27.2C27.6243 4.80001 28.0313 4.96858 28.3314 5.26864C28.6314 5.5687 28.8 5.97566 28.8 6.40001C28.8 6.82436 28.6314 7.23132 28.3314 7.53138C28.0313 7.83144 27.6243 8.00001 27.2 8.00001H6.40001V28C6.40001 28.2122 6.31573 28.4157 6.1657 28.5657C6.01567 28.7157 5.81218 28.8 5.60001 28.8H4.00001C3.78784 28.8 3.58436 28.7157 3.43433 28.5657C3.2843 28.4157 3.20001 28.2122 3.20001 28V4.80001ZM8.00001 10.4C8.00001 10.1878 8.0843 9.98435 8.23432 9.83432C8.38435 9.6843 8.58784 9.60001 8.80001 9.60001H26.4C26.6122 9.60001 26.8157 9.6843 26.9657 9.83432C27.1157 9.98435 27.2 10.1878 27.2 10.4V21.6C27.2 22.6609 26.7786 23.6783 26.0284 24.4284C25.2783 25.1786 24.2609 25.6 23.2 25.6H12C10.9391 25.6 9.92173 25.1786 9.17158 24.4284C8.42144 23.6783 8.00001 22.6609 8.00001 21.6V10.4ZM12.8 21.6C12.8 21.8122 12.8843 22.0157 13.0343 22.1657C13.1844 22.3157 13.3878 22.4 13.6 22.4H15.2C15.4122 22.4 15.6157 22.3157 15.7657 22.1657C15.9157 22.0157 16 21.8122 16 21.6V20C16 19.7878 16.0843 19.5843 16.2343 19.4343C16.3844 19.2843 16.5878 19.2 16.8 19.2H18.4C18.6122 19.2 18.8157 19.2843 18.9657 19.4343C19.1157 19.5843 19.2 19.7878 19.2 20V21.6C19.2 21.8122 19.2843 22.0157 19.4343 22.1657C19.5843 22.3157 19.7878 22.4 20 22.4H21.6C21.8122 22.4 22.0157 22.3157 22.1657 22.1657C22.3157 22.0157 22.4 21.8122 22.4 21.6V17.52C22.4001 17.2939 22.3522 17.0703 22.2595 16.864C22.1669 16.6577 22.0315 16.4734 21.8624 16.3232L18.1312 13.008C17.9848 12.878 17.7958 12.8062 17.6 12.8062C17.4042 12.8062 17.2152 12.878 17.0688 13.008L13.3376 16.32C13.1681 16.4705 13.0325 16.6554 12.9398 16.8622C12.8472 17.0691 12.7995 17.2933 12.8 17.52V21.6Z" fill="#023047"/>
</svg>
